<?xml version="1.0" encoding="UTF-8"?>
<svg xmlns="http://www.w3.org/2000/svg" xmlns:xlink="http://www.w3.org/1999/xlink" width="500px" height="345px" viewBox="0 0 500 345" version="1.1">
<g id="surface1">
<path style=" stroke:none;fill-rule:nonzero;fill:rgb(0%,0%,0%);fill-opacity:1;" d="M 326.859375 225.425781 L 225.128906 48.539062 L 298.210938 6.535156 L 424.714844 225.425781 L 326.859375 225.425781 "/>
<path style=" stroke:none;fill-rule:nonzero;fill:rgb(0%,0%,0%);fill-opacity:1;" d="M 55.886719 200.640625 L 128.972656 158.359375 L 167.644531 225.425781 L 70.070312 225.425781 L 55.886719 200.640625 "/>
<path style=" stroke:none;fill-rule:nonzero;fill:rgb(0%,0%,0%);fill-opacity:1;" d="M 199.316406 338.273438 L 220.113281 338.273438 L 220.113281 254.089844 L 199.316406 254.089844 Z M 199.316406 338.273438 "/>
<path style=" stroke:none;fill-rule:nonzero;fill:rgb(0%,0%,0%);fill-opacity:1;" d="M 459.976562 340.261719 C 436.71875 340.261719 422.726562 328.25 421.96875 311.316406 L 443.90625 311.316406 C 443.90625 316.613281 447.214844 324.371094 461.394531 324.65625 C 470.847656 324.65625 475.292969 319.074219 475.292969 314.910156 C 474.726562 308.292969 466.40625 307.722656 457.519531 306.300781 C 448.632812 304.882812 441.066406 303.273438 435.585938 300.441406 C 428.585938 296.84375 423.859375 289.089844 423.859375 280.195312 C 423.859375 265.15625 436.90625 253.234375 458.65625 253.234375 C 479.738281 253.234375 493.070312 264.304688 494.488281 280.761719 L 473.308594 280.761719 C 473.117188 276.316406 472.269531 269.316406 459.789062 269.316406 C 451.375 269.316406 445.796875 271.019531 445.324219 276.886719 C 445.324219 285.492188 462.816406 284.925781 476.429688 288.519531 C 489.476562 291.828125 497.796875 299.964844 497.796875 311.316406 C 497.796875 332.222656 480.871094 340.261719 459.976562 340.261719 "/>
<path style=" stroke:none;fill-rule:nonzero;fill:rgb(0%,0%,0%);fill-opacity:1;" d="M 141.546875 125.535156 L 214.632812 83.347656 L 296.601562 225.425781 L 220.113281 225.425781 L 220.113281 246.238281 L 199.316406 246.238281 L 199.316406 225.332031 L 141.546875 125.535156 "/>
<path style=" stroke:none;fill-rule:nonzero;fill:rgb(0%,0%,0%);fill-opacity:1;" d="M 143.4375 340.261719 C 119.234375 340.261719 99.570312 320.492188 99.570312 296.558594 C 99.570312 272.34375 119.234375 253.234375 143.4375 253.234375 C 152.609375 253.234375 160.929688 255.695312 168.210938 260.710938 L 168.210938 225.425781 L 189.011719 225.425781 L 189.011719 338.273438 L 168.210938 338.273438 L 168.210938 332.695312 C 160.929688 337.425781 152.609375 340.261719 143.4375 340.261719 Z M 119.519531 296.558594 C 119.519531 309.613281 130.675781 320.492188 144.007812 320.492188 C 157.054688 320.492188 168.210938 309.613281 168.210938 296.558594 C 168.210938 283.503906 157.054688 272.34375 144.007812 272.34375 C 130.675781 272.34375 119.519531 283.503906 119.519531 296.558594 "/>
<path style=" stroke:none;fill-rule:nonzero;fill:rgb(0%,0%,0%);fill-opacity:1;" d="M 297.171875 225.425781 L 317.683594 225.425781 L 317.683594 338.273438 L 297.171875 338.273438 L 297.171875 332.695312 C 290.171875 337.425781 281.570312 340.261719 272.117188 340.261719 C 248.195312 340.261719 228.527344 320.492188 228.527344 296.558594 C 228.527344 272.34375 248.195312 253.234375 272.117188 253.234375 C 281.570312 253.234375 289.890625 255.695312 297.171875 260.710938 Z M 248.761719 296.558594 C 248.761719 309.613281 259.917969 320.492188 272.683594 320.492188 C 286.011719 320.492188 297.171875 309.613281 297.171875 296.558594 C 297.171875 283.503906 286.011719 272.34375 272.683594 272.34375 C 259.917969 272.34375 248.761719 283.503906 248.761719 296.558594 "/>
<path style=" stroke:none;fill-rule:nonzero;fill:rgb(0%,0%,0%);fill-opacity:1;" d="M 368.269531 340.261719 C 344.441406 340.261719 324.683594 320.492188 324.683594 296.558594 C 324.683594 272.34375 344.441406 253.234375 368.269531 253.234375 C 377.4375 253.234375 386.042969 255.695312 393.039062 260.710938 L 393.039062 253.996094 L 413.839844 253.996094 L 413.839844 338.273438 L 393.039062 338.273438 L 393.039062 332.695312 C 386.042969 337.425781 377.722656 340.261719 368.269531 340.261719 Z M 344.914062 296.558594 C 344.914062 309.613281 356.070312 320.492188 369.121094 320.492188 C 382.167969 320.492188 393.039062 309.613281 393.039062 296.558594 C 393.039062 283.503906 382.167969 272.34375 369.121094 272.34375 C 356.070312 272.34375 344.914062 283.503906 344.914062 296.558594 "/>
<path style=" stroke:none;fill-rule:nonzero;fill:rgb(0%,0%,0%);fill-opacity:1;" d="M 23.082031 296.558594 C 23.082031 309.613281 34.238281 320.492188 47.285156 320.492188 C 60.613281 320.492188 71.773438 309.613281 71.773438 296.558594 C 71.773438 283.503906 60.613281 272.34375 47.285156 272.34375 C 34.238281 272.34375 23.082031 283.503906 23.082031 296.558594 Z M 46.71875 340.261719 C 22.800781 340.261719 3.035156 320.492188 3.035156 296.558594 C 3.035156 272.34375 22.800781 253.234375 46.71875 253.234375 C 55.886719 253.234375 64.492188 255.695312 71.773438 260.710938 L 71.773438 253.996094 L 92.289062 253.996094 L 92.289062 338.273438 L 71.773438 338.273438 L 71.773438 332.695312 C 64.777344 337.425781 56.171875 340.261719 46.71875 340.261719 "/>
</g>
</svg>
